<?xml version="1.0" encoding="UTF-8"?>
<svg viewBox="0 0 800 700" xmlns="http://www.w3.org/2000/svg">
  <!-- Background and title -->
  <rect width="800" height="700" fill="#f8f9fa" rx="10" ry="10" />
  
  <!-- Arrowhead definitions -->
  <defs>
    <marker id="arrowhead" markerWidth="10" markerHeight="7" refX="9" refY="3.5" orient="auto">
      <polygon points="0 0, 10 3.5, 0 7" fill="#326ce5" />
    </marker>
    <marker id="controlplaneArrowhead" markerWidth="10" markerHeight="7" refX="9" refY="3.5" orient="auto">
      <polygon points="0 0, 10 3.5, 0 7" fill="#e6b73e" />
    </marker>
    <marker id="workerArrowhead" markerWidth="10" markerHeight="7" refX="9" refY="3.5" orient="auto">
      <polygon points="0 0, 10 3.5, 0 7" fill="#7ca558" />
    </marker>
    <marker id="etcdArrowRead" markerWidth="10" markerHeight="7" refX="9" refY="3.5" orient="auto">
      <polygon points="0 0, 10 3.5, 0 7" fill="#e6b73e" />
    </marker>
    <marker id="etcdArrowWrite" markerWidth="10" markerHeight="7" refX="0" refY="3.5" orient="auto">
      <polygon points="10 0, 0 3.5, 10 7" fill="#e6b73e" />
    </marker>
  </defs>
  
  <!-- Client connections (with arrows) - Drawing FIRST -->
  <path d="M190,120 L330,210" stroke="#326ce5" stroke-width="1.5" stroke-dasharray="5,5" marker-end="url(#arrowhead)" />
  <path d="M190,210 L330,230" stroke="#326ce5" stroke-width="1.5" stroke-dasharray="5,5" marker-end="url(#arrowhead)" />
  <path d="M190,300 L330,250" stroke="#326ce5" stroke-width="1.5" stroke-dasharray="5,5" marker-end="url(#arrowhead)" />
  <path d="M190,390 L330,270" stroke="#326ce5" stroke-width="1.5" stroke-dasharray="5,5" marker-end="url(#arrowhead)" />
  
  <!-- Control plane connections (bidirectional) - Drawing FIRST -->
  <!-- etcd connections (read and write) -->
  <path d="M530,210 L580,120" stroke="#e6b73e" stroke-width="1.5" marker-end="url(#controlplaneArrowhead)" />
  <path d="M580,130 L530,220" stroke="#e6b73e" stroke-width="1.5" stroke-dasharray="3,3" marker-end="url(#controlplaneArrowhead)" />
  
  <!-- Scheduler connections (watch and update) -->
  <path d="M530,230 L580,210" stroke="#e6b73e" stroke-width="1.5" marker-end="url(#controlplaneArrowhead)" />
  <path d="M580,200 L530,220" stroke="#e6b73e" stroke-width="1.5" stroke-dasharray="3,3" marker-end="url(#controlplaneArrowhead)" />
  
  <!-- Controller connections (watch and update) -->
  <path d="M530,250 L580,300" stroke="#e6b73e" stroke-width="1.5" marker-end="url(#controlplaneArrowhead)" />
  <path d="M580,290 L530,240" stroke="#e6b73e" stroke-width="1.5" stroke-dasharray="3,3" marker-end="url(#controlplaneArrowhead)" />
  
  <!-- Worker node connections (bidirectional) - Drawing FIRST -->
  <path d="M330,370 L190,490" stroke="#7ca558" stroke-width="1.5" marker-end="url(#workerArrowhead)" />
  <path d="M190,480 L330,360" stroke="#7ca558" stroke-width="1.5" stroke-dasharray="3,3" marker-end="url(#workerArrowhead)" />
  
  <path d="M330,390 L190,580" stroke="#7ca558" stroke-width="1.5" marker-end="url(#workerArrowhead)" />
  <path d="M190,570 L330,380" stroke="#7ca558" stroke-width="1.5" stroke-dasharray="3,3" marker-end="url(#workerArrowhead)" />
  
  <!-- API Server central component -->
  <rect x="330" y="200" width="200" height="200" rx="10" ry="10" fill="#326ce5" stroke="#2050a0" stroke-width="2" />
  <text x="430" y="225" font-family="Arial, sans-serif" font-size="18" font-weight="bold" text-anchor="middle" fill="white">kube-apiserver</text>
  <text x="430" y="190" font-family="Arial, sans-serif" font-size="12" font-weight="bold" text-anchor="middle" fill="#2050a0">Central Communication Hub</text>
  
  <!-- Internal components of API server with flow -->
  <rect x="350" y="240" width="160" height="30" rx="5" ry="5" fill="#ffffff" stroke="#2050a0" stroke-width="1" />
  <text x="430" y="260" font-family="Arial, sans-serif" font-size="12" text-anchor="middle">Authentication</text>
  
  <rect x="350" y="280" width="160" height="30" rx="5" ry="5" fill="#ffffff" stroke="#2050a0" stroke-width="1" />
  <text x="430" y="300" font-family="Arial, sans-serif" font-size="12" text-anchor="middle">Authorization</text>
  
  <rect x="350" y="320" width="160" height="30" rx="5" ry="5" fill="#ffffff" stroke="#2050a0" stroke-width="1" />
  <text x="430" y="340" font-family="Arial, sans-serif" font-size="12" text-anchor="middle">Admission Control</text>
  
  <rect x="350" y="360" width="160" height="30" rx="5" ry="5" fill="#ffffff" stroke="#2050a0" stroke-width="1" />
  <text x="430" y="380" font-family="Arial, sans-serif" font-size="12" text-anchor="middle">Validation &amp; REST API</text>
  
  <!-- Flow arrows inside API server -->
  <path d="M430,270 L430,280" stroke="#2050a0" stroke-width="1.5" fill="none" marker-end="url(#arrowhead)" />
  <path d="M430,310 L430,320" stroke="#2050a0" stroke-width="1.5" fill="none" marker-end="url(#arrowhead)" />
  <path d="M430,350 L430,360" stroke="#2050a0" stroke-width="1.5" fill="none" marker-end="url(#arrowhead)" />
  
  <!-- Clients -->
  <rect x="70" y="100" width="120" height="40" rx="5" ry="5" fill="#76c7c0" stroke="#5ba8a0" stroke-width="2" />
  <text x="130" y="125" font-family="Arial, sans-serif" font-size="14" text-anchor="middle">kubectl</text>
  
  <!-- kubectl description - AFTER connections -->
  <rect x="70" y="142" width="240" height="40" rx="5" ry="5" fill="#ffffff" stroke="#cccccc" stroke-width="1" />
  <text x="75" y="157" font-family="Arial, sans-serif" font-size="9" text-anchor="start">Command-line tool for cluster management</text>
  <text x="75" y="172" font-family="Arial, sans-serif" font-size="9" text-anchor="start">Uses REST API calls to kube-apiserver</text>
  
  <rect x="70" y="190" width="120" height="40" rx="5" ry="5" fill="#76c7c0" stroke="#5ba8a0" stroke-width="2" />
  <text x="130" y="215" font-family="Arial, sans-serif" font-size="14" text-anchor="middle">Dashboard</text>
  
  <!-- Dashboard description - AFTER connections -->
  <rect x="70" y="232" width="240" height="40" rx="5" ry="5" fill="#ffffff" stroke="#cccccc" stroke-width="1" />
  <text x="75" y="247" font-family="Arial, sans-serif" font-size="9" text-anchor="start">Web UI for visualizing cluster resources</text>
  <text x="75" y="262" font-family="Arial, sans-serif" font-size="9" text-anchor="start">Uses secure HTTP requests to kube-apiserver</text>
  
  <rect x="70" y="280" width="120" height="40" rx="5" ry="5" fill="#76c7c0" stroke="#5ba8a0" stroke-width="2" />
  <text x="130" y="305" font-family="Arial, sans-serif" font-size="14" text-anchor="middle">Custom Apps</text>
  
  <!-- Custom Apps description - AFTER connections -->
  <rect x="70" y="322" width="240" height="40" rx="5" ry="5" fill="#ffffff" stroke="#cccccc" stroke-width="1" />
  <text x="75" y="337" font-family="Arial, sans-serif" font-size="9" text-anchor="start">User applications using Kubernetes client libraries</text>
  <text x="75" y="352" font-family="Arial, sans-serif" font-size="9" text-anchor="start">Uses client SDKs to communicate with API server</text>
  
  <rect x="70" y="370" width="120" height="40" rx="5" ry="5" fill="#76c7c0" stroke="#5ba8a0" stroke-width="2" />
  <text x="130" y="395" font-family="Arial, sans-serif" font-size="14" text-anchor="middle">CI/CD Tools</text>
  
  <!-- CI/CD Tools description - AFTER connections -->
  <rect x="70" y="412" width="240" height="40" rx="5" ry="5" fill="#ffffff" stroke="#cccccc" stroke-width="1" />
  <text x="75" y="427" font-family="Arial, sans-serif" font-size="9" text-anchor="start">Automation tools for deployment pipelines</text>
  <text x="75" y="442" font-family="Arial, sans-serif" font-size="9" text-anchor="start">Uses API tokens for authorized access</text>
  
  <!-- Control Plane Components -->
  <rect x="580" y="100" width="120" height="40" rx="5" ry="5" fill="#f9c74f" stroke="#e6b73e" stroke-width="2" />
  <text x="640" y="125" font-family="Arial, sans-serif" font-size="14" text-anchor="middle">etcd</text>
  
  <!-- etcd description - AFTER connections -->
  <rect x="580" y="142" width="210" height="40" rx="5" ry="5" fill="#ffffff" stroke="#cccccc" stroke-width="1" />
  <text x="585" y="157" font-family="Arial, sans-serif" font-size="9" text-anchor="start">Distributed key-value store for cluster data</text>
  <text x="585" y="172" font-family="Arial, sans-serif" font-size="9" text-anchor="start">API server reads from and writes to etcd</text>
  
  <rect x="580" y="190" width="120" height="40" rx="5" ry="5" fill="#f9c74f" stroke="#e6b73e" stroke-width="2" />
  <text x="640" y="215" font-family="Arial, sans-serif" font-size="14" text-anchor="middle">Scheduler</text>
  
  <!-- Scheduler description - AFTER connections -->
  <rect x="580" y="232" width="210" height="40" rx="5" ry="5" fill="#ffffff" stroke="#cccccc" stroke-width="1" />
  <text x="585" y="247" font-family="Arial, sans-serif" font-size="9" text-anchor="start">Assigns pods to worker nodes</text>
  <text x="585" y="262" font-family="Arial, sans-serif" font-size="9" text-anchor="start">Watches API server for unscheduled pods</text>
  
  <rect x="580" y="280" width="120" height="40" rx="5" ry="5" fill="#f9c74f" stroke="#e6b73e" stroke-width="2" />
  <text x="640" y="305" font-family="Arial, sans-serif" font-size="14" text-anchor="middle">Controller Mgr</text>
  
  <!-- Controller Manager description - AFTER connections -->
  <rect x="580" y="322" width="210" height="40" rx="5" ry="5" fill="#ffffff" stroke="#cccccc" stroke-width="1" />
  <text x="585" y="337" font-family="Arial, sans-serif" font-size="9" text-anchor="start">Runs controllers (node, replication, endpoints)</text>
  <text x="585" y="352" font-family="Arial, sans-serif" font-size="9" text-anchor="start">Uses watch API to monitor resource changes</text>
  
  <!-- Worker Nodes -->
  <rect x="70" y="470" width="120" height="40" rx="5" ry="5" fill="#90be6d" stroke="#7ca558" stroke-width="2" />
  <text x="130" y="495" font-family="Arial, sans-serif" font-size="14" text-anchor="middle">Kubelet</text>
  
  <!-- Kubelet description - AFTER connections -->
  <rect x="70" y="512" width="240" height="40" rx="5" ry="5" fill="#ffffff" stroke="#cccccc" stroke-width="1" />
  <text x="75" y="527" font-family="Arial, sans-serif" font-size="9" text-anchor="start">Node agent ensuring pods run as expected</text>
  <text x="75" y="542" font-family="Arial, sans-serif" font-size="9" text-anchor="start">Reports node and pod status to API server</text>
  
  <rect x="70" y="560" width="120" height="40" rx="5" ry="5" fill="#90be6d" stroke="#7ca558" stroke-width="2" />
  <text x="130" y="585" font-family="Arial, sans-serif" font-size="14" text-anchor="middle">kube-proxy</text>
  
  <!-- kube-proxy description - AFTER connections -->
  <rect x="70" y="602" width="240" height="40" rx="5" ry="5" fill="#ffffff" stroke="#cccccc" stroke-width="1" />
  <text x="75" y="617" font-family="Arial, sans-serif" font-size="9" text-anchor="start">Network proxy implementing service abstraction</text>
  <text x="75" y="632" font-family="Arial, sans-serif" font-size="9" text-anchor="start">Watches API server for service/endpoint changes</text>
  
  <!-- Key Functions -->
  <rect x="320" y="430" width="230" height="135" rx="5" ry="5" fill="#ffffff" stroke="#2050a0" stroke-width="1" />
  <text x="435" y="450" font-family="Arial, sans-serif" font-size="14" font-weight="bold" text-anchor="middle">API Server Functions</text>
  <text x="330" y="470" font-family="Arial, sans-serif" font-size="11" text-anchor="start">• REST API endpoint for all operations</text>
  <text x="330" y="490" font-family="Arial, sans-serif" font-size="11" text-anchor="start">• Validates and processes API requests</text>
  <text x="330" y="510" font-family="Arial, sans-serif" font-size="11" text-anchor="start">• Handles authentication/authorization</text>
  <text x="330" y="530" font-family="Arial, sans-serif" font-size="11" text-anchor="start">• Stores cluster state in etcd</text>
  <text x="330" y="550" font-family="Arial, sans-serif" font-size="11" text-anchor="start">• Single source of truth for cluster</text>
  
  <!-- Legend -->
  <rect x="580" y="420" width="200" height="180" rx="5" ry="5" fill="#ffffff" stroke="#cccccc" stroke-width="1" />
  <text x="680" y="440" font-family="Arial, sans-serif" font-size="16" font-weight="bold" text-anchor="middle">Legend</text>
  
  <rect x="590" y="450" width="20" height="20" fill="#76c7c0" />
  <text x="620" y="465" font-family="Arial, sans-serif" font-size="12" text-anchor="start">Clients</text>
  
  <rect x="590" y="475" width="20" height="20" fill="#326ce5" />
  <text x="620" y="490" font-family="Arial, sans-serif" font-size="12" text-anchor="start">API Server</text>
  
  <rect x="590" y="500" width="20" height="20" fill="#f9c74f" />
  <text x="620" y="515" font-family="Arial, sans-serif" font-size="12" text-anchor="start">Control Plane</text>
  
  <rect x="590" y="525" width="20" height="20" fill="#90be6d" />
  <text x="620" y="540" font-family="Arial, sans-serif" font-size="12" text-anchor="start">Worker Nodes</text>
  
  <line x1="590" y1="560" x2="610" y2="560" stroke="#326ce5" stroke-width="1.5" stroke-dasharray="3,3" />
  <text x="620" y="565" font-family="Arial, sans-serif" font-size="12" text-anchor="start">Watch Mechanism</text>
  
  <line x1="590" y1="580" x2="610" y2="580" stroke="#326ce5" stroke-width="1.5" />
  <text x="620" y="585" font-family="Arial, sans-serif" font-size="12" text-anchor="start">Direct Request</text>
  
  <!-- High Availability Note -->
  <rect x="330" y="595" width="270" height="60" rx="5" ry="5" fill="#ffffff" stroke="#cccccc" stroke-width="1" />
  <text x="465" y="610" font-family="Arial, sans-serif" font-size="11" font-weight="bold" text-anchor="middle">High Availability Note</text>
  <text x="340" y="627" font-family="Arial, sans-serif" font-size="9" text-anchor="start">API Server and etcd are typically deployed as replicated</text>
  <text x="340" y="637" font-family="Arial, sans-serif" font-size="9" text-anchor="start">components for redundancy in production environments</text>
  <text x="340" y="647" font-family="Arial, sans-serif" font-size="9" text-anchor="start">Multiple API servers work together to distribute client load</text>
  
  <!-- Title - drawn last to be on top -->
  <text x="400" y="40" font-family="Arial, sans-serif" font-size="24" font-weight="bold" text-anchor="middle" fill="#326ce5">Kubernetes API Server Architecture</text>
</svg>
